<mxfile host="app.diagrams.net" modified="2022-11-03T03:44:54.559Z" agent="5.0 (Windows NT 10.0; Win64; x64) AppleWebKit/537.36 (KHTML, like Gecko) Chrome/106.0.0.0 Safari/537.36" etag="RV9LvjtkfwWeliz090Yw" version="20.5.1" type="github">
  <diagram name="Page-1" id="10a91c8b-09ff-31b1-d368-03940ed4cc9e">
    <mxGraphModel dx="1131" dy="784" grid="1" gridSize="10" guides="1" tooltips="1" connect="1" arrows="1" fold="1" page="1" pageScale="1" pageWidth="1100" pageHeight="850" background="none" math="0" shadow="0">
      <root>
        <mxCell id="0" />
        <mxCell id="1" parent="0" />
        <mxCell id="guZS1y_OzkmB-TQ8dY6Z-22" style="edgeStyle=orthogonalEdgeStyle;rounded=0;orthogonalLoop=1;jettySize=auto;html=1;exitX=0.5;exitY=0;exitDx=0;exitDy=0;" edge="1" parent="1" source="62893188c0fa7362-1" target="guZS1y_OzkmB-TQ8dY6Z-3">
          <mxGeometry relative="1" as="geometry" />
        </mxCell>
        <mxCell id="guZS1y_OzkmB-TQ8dY6Z-23" style="edgeStyle=orthogonalEdgeStyle;rounded=0;orthogonalLoop=1;jettySize=auto;html=1;exitX=0.5;exitY=0;exitDx=0;exitDy=0;entryX=0.5;entryY=1;entryDx=0;entryDy=0;" edge="1" parent="1" source="62893188c0fa7362-1" target="guZS1y_OzkmB-TQ8dY6Z-2">
          <mxGeometry relative="1" as="geometry" />
        </mxCell>
        <mxCell id="guZS1y_OzkmB-TQ8dY6Z-24" style="edgeStyle=orthogonalEdgeStyle;rounded=0;orthogonalLoop=1;jettySize=auto;html=1;exitX=0.5;exitY=0;exitDx=0;exitDy=0;entryX=0.5;entryY=1;entryDx=0;entryDy=0;" edge="1" parent="1" source="62893188c0fa7362-1" target="guZS1y_OzkmB-TQ8dY6Z-4">
          <mxGeometry relative="1" as="geometry" />
        </mxCell>
        <mxCell id="guZS1y_OzkmB-TQ8dY6Z-25" style="edgeStyle=orthogonalEdgeStyle;rounded=0;orthogonalLoop=1;jettySize=auto;html=1;exitX=0.5;exitY=0;exitDx=0;exitDy=0;entryX=0.5;entryY=1;entryDx=0;entryDy=0;" edge="1" parent="1" source="62893188c0fa7362-1" target="guZS1y_OzkmB-TQ8dY6Z-5">
          <mxGeometry relative="1" as="geometry" />
        </mxCell>
        <mxCell id="guZS1y_OzkmB-TQ8dY6Z-26" style="edgeStyle=orthogonalEdgeStyle;rounded=0;orthogonalLoop=1;jettySize=auto;html=1;exitX=0.5;exitY=0;exitDx=0;exitDy=0;" edge="1" parent="1" source="62893188c0fa7362-1" target="guZS1y_OzkmB-TQ8dY6Z-1">
          <mxGeometry relative="1" as="geometry" />
        </mxCell>
        <mxCell id="guZS1y_OzkmB-TQ8dY6Z-27" style="edgeStyle=orthogonalEdgeStyle;rounded=0;orthogonalLoop=1;jettySize=auto;html=1;exitX=0.5;exitY=1;exitDx=0;exitDy=0;" edge="1" parent="1" source="62893188c0fa7362-1" target="guZS1y_OzkmB-TQ8dY6Z-14">
          <mxGeometry relative="1" as="geometry">
            <mxPoint x="540" y="370" as="sourcePoint" />
          </mxGeometry>
        </mxCell>
        <mxCell id="guZS1y_OzkmB-TQ8dY6Z-28" style="edgeStyle=orthogonalEdgeStyle;rounded=0;orthogonalLoop=1;jettySize=auto;html=1;exitX=0.5;exitY=1;exitDx=0;exitDy=0;entryX=0.5;entryY=0;entryDx=0;entryDy=0;" edge="1" parent="1" source="62893188c0fa7362-1" target="guZS1y_OzkmB-TQ8dY6Z-13">
          <mxGeometry relative="1" as="geometry" />
        </mxCell>
        <mxCell id="guZS1y_OzkmB-TQ8dY6Z-29" style="edgeStyle=orthogonalEdgeStyle;rounded=0;orthogonalLoop=1;jettySize=auto;html=1;exitX=0.5;exitY=1;exitDx=0;exitDy=0;" edge="1" parent="1" source="62893188c0fa7362-1" target="guZS1y_OzkmB-TQ8dY6Z-12">
          <mxGeometry relative="1" as="geometry" />
        </mxCell>
        <mxCell id="guZS1y_OzkmB-TQ8dY6Z-30" style="edgeStyle=orthogonalEdgeStyle;rounded=0;orthogonalLoop=1;jettySize=auto;html=1;exitX=0.5;exitY=1;exitDx=0;exitDy=0;" edge="1" parent="1" source="62893188c0fa7362-1" target="guZS1y_OzkmB-TQ8dY6Z-11">
          <mxGeometry relative="1" as="geometry" />
        </mxCell>
        <mxCell id="guZS1y_OzkmB-TQ8dY6Z-33" style="edgeStyle=orthogonalEdgeStyle;rounded=0;orthogonalLoop=1;jettySize=auto;html=1;exitX=0.5;exitY=1;exitDx=0;exitDy=0;" edge="1" parent="1" source="62893188c0fa7362-1" target="guZS1y_OzkmB-TQ8dY6Z-10">
          <mxGeometry relative="1" as="geometry" />
        </mxCell>
        <mxCell id="guZS1y_OzkmB-TQ8dY6Z-34" style="edgeStyle=orthogonalEdgeStyle;rounded=0;orthogonalLoop=1;jettySize=auto;html=1;exitX=0;exitY=0.5;exitDx=0;exitDy=0;entryX=1;entryY=0.5;entryDx=0;entryDy=0;" edge="1" parent="1" source="62893188c0fa7362-1" target="guZS1y_OzkmB-TQ8dY6Z-18">
          <mxGeometry relative="1" as="geometry" />
        </mxCell>
        <mxCell id="guZS1y_OzkmB-TQ8dY6Z-35" style="edgeStyle=orthogonalEdgeStyle;rounded=0;orthogonalLoop=1;jettySize=auto;html=1;exitX=1;exitY=0.5;exitDx=0;exitDy=0;" edge="1" parent="1" source="62893188c0fa7362-1" target="guZS1y_OzkmB-TQ8dY6Z-7">
          <mxGeometry relative="1" as="geometry" />
        </mxCell>
        <mxCell id="guZS1y_OzkmB-TQ8dY6Z-36" style="edgeStyle=orthogonalEdgeStyle;rounded=0;orthogonalLoop=1;jettySize=auto;html=1;exitX=0;exitY=0.5;exitDx=0;exitDy=0;entryX=1;entryY=0.5;entryDx=0;entryDy=0;" edge="1" parent="1" source="62893188c0fa7362-1" target="guZS1y_OzkmB-TQ8dY6Z-19">
          <mxGeometry relative="1" as="geometry" />
        </mxCell>
        <mxCell id="guZS1y_OzkmB-TQ8dY6Z-37" style="edgeStyle=orthogonalEdgeStyle;rounded=0;orthogonalLoop=1;jettySize=auto;html=1;exitX=0;exitY=0.5;exitDx=0;exitDy=0;entryX=1;entryY=0.5;entryDx=0;entryDy=0;" edge="1" parent="1" source="62893188c0fa7362-1" target="guZS1y_OzkmB-TQ8dY6Z-16">
          <mxGeometry relative="1" as="geometry" />
        </mxCell>
        <mxCell id="guZS1y_OzkmB-TQ8dY6Z-38" style="edgeStyle=orthogonalEdgeStyle;rounded=0;orthogonalLoop=1;jettySize=auto;html=1;exitX=0;exitY=0.5;exitDx=0;exitDy=0;entryX=1.008;entryY=0.617;entryDx=0;entryDy=0;entryPerimeter=0;" edge="1" parent="1" source="62893188c0fa7362-1" target="guZS1y_OzkmB-TQ8dY6Z-15">
          <mxGeometry relative="1" as="geometry" />
        </mxCell>
        <mxCell id="guZS1y_OzkmB-TQ8dY6Z-39" style="edgeStyle=orthogonalEdgeStyle;rounded=0;orthogonalLoop=1;jettySize=auto;html=1;exitX=1;exitY=0.5;exitDx=0;exitDy=0;entryX=0;entryY=0.5;entryDx=0;entryDy=0;" edge="1" parent="1" source="62893188c0fa7362-1" target="guZS1y_OzkmB-TQ8dY6Z-6">
          <mxGeometry relative="1" as="geometry" />
        </mxCell>
        <mxCell id="guZS1y_OzkmB-TQ8dY6Z-40" style="edgeStyle=orthogonalEdgeStyle;rounded=0;orthogonalLoop=1;jettySize=auto;html=1;exitX=1;exitY=0.5;exitDx=0;exitDy=0;entryX=0;entryY=0.5;entryDx=0;entryDy=0;" edge="1" parent="1" source="62893188c0fa7362-1" target="guZS1y_OzkmB-TQ8dY6Z-8">
          <mxGeometry relative="1" as="geometry" />
        </mxCell>
        <mxCell id="guZS1y_OzkmB-TQ8dY6Z-41" style="edgeStyle=orthogonalEdgeStyle;rounded=0;orthogonalLoop=1;jettySize=auto;html=1;exitX=1;exitY=0.5;exitDx=0;exitDy=0;entryX=0;entryY=0.5;entryDx=0;entryDy=0;" edge="1" parent="1" source="62893188c0fa7362-1" target="guZS1y_OzkmB-TQ8dY6Z-9">
          <mxGeometry relative="1" as="geometry" />
        </mxCell>
        <mxCell id="62893188c0fa7362-1" value="&lt;span style=&quot;font-family: Helvetica;&quot;&gt;CacheHandlerSystem&lt;br&gt;&lt;br&gt;InitCachData&lt;/span&gt;&lt;br style=&quot;font-family: Helvetica;&quot;&gt;&lt;span style=&quot;font-family: Helvetica;&quot;&gt;初始化缓存数据&lt;/span&gt;" style="whiteSpace=wrap;html=1;rounded=1;shadow=1;labelBackgroundColor=none;strokeWidth=1;fontFamily=Verdana;fontSize=12;align=center;fillColor=#d5e8d4;strokeColor=#82b366;" parent="1" vertex="1">
          <mxGeometry x="480" y="335" width="120" height="75" as="geometry" />
        </mxCell>
        <mxCell id="guZS1y_OzkmB-TQ8dY6Z-1" value="SaveAllMaster&lt;br&gt;用户基础信息" style="rounded=1;whiteSpace=wrap;html=1;fillColor=#dae8fc;strokeColor=#6c8ebf;" vertex="1" parent="1">
          <mxGeometry x="200" y="50" width="120" height="60" as="geometry" />
        </mxCell>
        <mxCell id="guZS1y_OzkmB-TQ8dY6Z-2" value="SaveAllPwdPolicy&lt;br&gt;用户的密码策略" style="rounded=1;whiteSpace=wrap;html=1;fillColor=#dae8fc;strokeColor=#6c8ebf;" vertex="1" parent="1">
          <mxGeometry x="340" y="50" width="120" height="60" as="geometry" />
        </mxCell>
        <mxCell id="guZS1y_OzkmB-TQ8dY6Z-3" value="SaveAllMasterPwdHistory&lt;br&gt;主账号改密历史记录" style="rounded=1;whiteSpace=wrap;html=1;fillColor=#dae8fc;strokeColor=#6c8ebf;" vertex="1" parent="1">
          <mxGeometry x="470" y="50" width="140" height="60" as="geometry" />
        </mxCell>
        <mxCell id="guZS1y_OzkmB-TQ8dY6Z-4" value="SaveAllPlatParam&lt;br&gt;平台参数" style="rounded=1;whiteSpace=wrap;html=1;fillColor=#dae8fc;strokeColor=#6c8ebf;" vertex="1" parent="1">
          <mxGeometry x="620" y="50" width="140" height="60" as="geometry" />
        </mxCell>
        <mxCell id="guZS1y_OzkmB-TQ8dY6Z-5" value="SavePageSetting&lt;br&gt;平台页面配置" style="rounded=1;whiteSpace=wrap;html=1;fillColor=#dae8fc;strokeColor=#6c8ebf;" vertex="1" parent="1">
          <mxGeometry x="770" y="50" width="140" height="60" as="geometry" />
        </mxCell>
        <mxCell id="guZS1y_OzkmB-TQ8dY6Z-6" value="SaveSysLicense&lt;br&gt;系统授权" style="rounded=1;whiteSpace=wrap;html=1;fillColor=#dae8fc;strokeColor=#6c8ebf;" vertex="1" parent="1">
          <mxGeometry x="880" y="250" width="120" height="60" as="geometry" />
        </mxCell>
        <mxCell id="guZS1y_OzkmB-TQ8dY6Z-7" value="SaveEmailSetting&lt;br&gt;邮箱服务器配置" style="rounded=1;whiteSpace=wrap;html=1;fillColor=#dae8fc;strokeColor=#6c8ebf;" vertex="1" parent="1">
          <mxGeometry x="880" y="342.5" width="120" height="60" as="geometry" />
        </mxCell>
        <mxCell id="guZS1y_OzkmB-TQ8dY6Z-8" value="SaveSmsSetting&lt;br&gt;短信服务器配置" style="rounded=1;whiteSpace=wrap;html=1;fillColor=#dae8fc;strokeColor=#6c8ebf;" vertex="1" parent="1">
          <mxGeometry x="880" y="410" width="120" height="60" as="geometry" />
        </mxCell>
        <mxCell id="guZS1y_OzkmB-TQ8dY6Z-9" value="SaveLogConf&lt;br&gt;日志外发服务器配置" style="rounded=1;whiteSpace=wrap;html=1;fillColor=#dae8fc;strokeColor=#6c8ebf;" vertex="1" parent="1">
          <mxGeometry x="880" y="490" width="120" height="60" as="geometry" />
        </mxCell>
        <mxCell id="guZS1y_OzkmB-TQ8dY6Z-10" value="SaveAllRes&lt;br&gt;更新资源列表" style="rounded=1;whiteSpace=wrap;html=1;fillColor=#dae8fc;strokeColor=#6c8ebf;" vertex="1" parent="1">
          <mxGeometry x="770" y="710" width="120" height="60" as="geometry" />
        </mxCell>
        <mxCell id="guZS1y_OzkmB-TQ8dY6Z-11" value="SaveAllMasterResRules&lt;br&gt;更新用户的应用角色策略" style="rounded=1;whiteSpace=wrap;html=1;fillColor=#dae8fc;strokeColor=#6c8ebf;" vertex="1" parent="1">
          <mxGeometry x="610" y="710" width="140" height="60" as="geometry" />
        </mxCell>
        <mxCell id="guZS1y_OzkmB-TQ8dY6Z-12" value="SaveDataServer&lt;br&gt;更新文档管控服务器配置" style="rounded=1;whiteSpace=wrap;html=1;fillColor=#dae8fc;strokeColor=#6c8ebf;" vertex="1" parent="1">
          <mxGeometry x="480" y="710" width="120" height="60" as="geometry" />
        </mxCell>
        <mxCell id="guZS1y_OzkmB-TQ8dY6Z-13" value="SaveAllMasterSlaveAuth&lt;br&gt;应用从账户信息" style="rounded=1;whiteSpace=wrap;html=1;fillColor=#dae8fc;strokeColor=#6c8ebf;" vertex="1" parent="1">
          <mxGeometry x="332.5" y="710" width="135" height="60" as="geometry" />
        </mxCell>
        <mxCell id="guZS1y_OzkmB-TQ8dY6Z-14" value="SaveResDefaultSlave&lt;br&gt;应用默认从账户信息" style="rounded=1;whiteSpace=wrap;html=1;fillColor=#dae8fc;strokeColor=#6c8ebf;" vertex="1" parent="1">
          <mxGeometry x="200" y="710" width="120" height="60" as="geometry" />
        </mxCell>
        <mxCell id="guZS1y_OzkmB-TQ8dY6Z-15" value="SaveAllNatPortMapping&lt;br&gt;nat port映射关系" style="rounded=1;whiteSpace=wrap;html=1;fillColor=#dae8fc;strokeColor=#6c8ebf;" vertex="1" parent="1">
          <mxGeometry x="75" y="490" width="130" height="60" as="geometry" />
        </mxCell>
        <mxCell id="guZS1y_OzkmB-TQ8dY6Z-16" value="SaveAllPortalVaultInfo&lt;br&gt;portal端需要的金库规则和关联数据" style="rounded=1;whiteSpace=wrap;html=1;fillColor=#dae8fc;strokeColor=#6c8ebf;" vertex="1" parent="1">
          <mxGeometry x="45" y="410" width="160" height="60" as="geometry" />
        </mxCell>
        <mxCell id="guZS1y_OzkmB-TQ8dY6Z-18" value="SaveAll&lt;br&gt;authc登录otp二次验证时所需otp数据" style="rounded=1;whiteSpace=wrap;html=1;fillColor=#dae8fc;strokeColor=#6c8ebf;" vertex="1" parent="1">
          <mxGeometry x="50" y="340" width="155" height="65" as="geometry" />
        </mxCell>
        <mxCell id="guZS1y_OzkmB-TQ8dY6Z-19" value="SaveAllNotice&lt;br&gt;portal 公告" style="rounded=1;whiteSpace=wrap;html=1;fillColor=#dae8fc;strokeColor=#6c8ebf;" vertex="1" parent="1">
          <mxGeometry x="85" y="240" width="120" height="60" as="geometry" />
        </mxCell>
      </root>
    </mxGraphModel>
  </diagram>
</mxfile>
